<svg width="20" height="20" viewBox="0 0 20 20" fill="none" xmlns="http://www.w3.org/2000/svg">
    <path fill-rule="evenodd" clip-rule="evenodd"
        d="M6.59669 2.91675C4.36085 2.91675 2.91669 4.27925 2.91669 6.38758V13.6117C2.91669 15.7201 4.36085 17.0834 6.59669 17.0834H13.4034C15.6392 17.0834 17.0834 15.7201 17.0834 13.6117V6.38758C17.0834 4.27925 15.6392 2.91675 13.4034 2.91675H6.59669ZM13.4034 18.3334H6.59669C3.64835 18.3334 1.66669 16.4359 1.66669 13.6117V6.38758C1.66669 3.56341 3.64835 1.66675 6.59669 1.66675H13.4034C16.3517 1.66675 18.3334 3.56341 18.3334 6.38758V13.6117C18.3334 16.4359 16.3517 18.3334 13.4034 18.3334Z"
        fill="#5E626F" />
    <path fill-rule="evenodd" clip-rule="evenodd"
        d="M13.4049 10.625H6.59491C6.24991 10.625 5.96991 10.345 5.96991 10C5.96991 9.655 6.24991 9.375 6.59491 9.375H13.4049C13.7499 9.375 14.0299 9.655 14.0299 10C14.0299 10.345 13.7499 10.625 13.4049 10.625Z"
        fill="#5E626F" />
    <path fill-rule="evenodd" clip-rule="evenodd"
        d="M10.2686 13.7484C10.1086 13.7484 9.94775 13.6876 9.82608 13.5642C9.58275 13.3192 9.58358 12.9242 9.82775 12.6809L12.5194 10.0001L9.82775 7.31925C9.58358 7.07591 9.58275 6.68091 9.82608 6.43591C10.0694 6.19091 10.4644 6.19091 10.7094 6.43425L13.8461 9.55758C13.9644 9.67425 14.0303 9.83425 14.0303 10.0001C14.0303 10.1659 13.9644 10.3259 13.8461 10.4426L10.7094 13.5659C10.5878 13.6876 10.4278 13.7484 10.2686 13.7484Z"
        fill="#5E626F" />
</svg>