<svg width="24" height="24" viewBox="0 0 24 24" fill="none" xmlns="http://www.w3.org/2000/svg">
<g clip-path="url(#clip0_7175_80)">
<path d="M4.45569 17.1767C4.62334 17.3386 4.84788 17.4282 5.08094 17.4262C5.31401 17.4242 5.53696 17.3307 5.70177 17.1659C5.86658 17.0011 5.96006 16.7781 5.96209 16.5451C5.96412 16.312 5.87452 16.0875 5.7126 15.9198L1.89663 12.1037L5.7126 8.28769C5.87452 8.12004 5.96412 7.8955 5.96209 7.66243C5.96006 7.42936 5.86658 7.20641 5.70177 7.0416C5.53696 6.87679 5.31401 6.78331 5.08094 6.78128C4.84788 6.77926 4.62334 6.86885 4.45569 7.03078L0.0111735 11.4753C-0.15547 11.642 -0.249084 11.868 -0.249084 12.1037C-0.249084 12.3394 -0.15547 12.5655 0.0111735 12.7322L4.45569 17.1767Z" fill="#7388A9"/>
<path d="M17.7892 17.1767C17.9559 17.3434 18.1819 17.437 18.4176 17.437C18.6533 17.437 18.8794 17.3434 19.0461 17.1767L23.4906 12.7322C23.6573 12.5655 23.7509 12.3395 23.7509 12.1037C23.7509 11.868 23.6573 11.642 23.4906 11.4753L19.0461 7.03078C18.8784 6.86885 18.6539 6.77926 18.4208 6.78128C18.1878 6.78331 17.9648 6.87679 17.8 7.0416C17.6352 7.20641 17.5417 7.42936 17.5397 7.66243C17.5377 7.8955 17.6273 8.12004 17.7892 8.28769L21.6052 12.1037L17.7892 15.9198C17.6225 16.0865 17.5289 16.3126 17.5289 16.5483C17.5289 16.784 17.6225 17.01 17.7892 17.1767Z" fill="#7388A9"/>
<path d="M8.73393 19.1432C8.84125 19.1892 8.95659 19.2137 9.07335 19.2151C9.19012 19.2166 9.30602 19.195 9.41444 19.1516C9.52286 19.1082 9.62167 19.0439 9.70523 18.9623C9.78878 18.8808 9.85545 18.7835 9.90142 18.6762L15.2348 6.23155C15.3277 6.0148 15.3307 5.77003 15.2431 5.55109C15.1555 5.33214 14.9846 5.15696 14.7678 5.06407C14.5511 4.97118 14.3063 4.9682 14.0873 5.05579C13.8684 5.14337 13.6932 5.31435 13.6003 5.5311L8.2669 17.9757C8.22088 18.0831 8.19645 18.1984 8.19501 18.3152C8.19358 18.4319 8.21516 18.5478 8.25853 18.6562C8.3019 18.7647 8.36621 18.8635 8.44778 18.947C8.52935 19.0306 8.62659 19.0973 8.73393 19.1432Z" fill="#7388A9"/>
</g>
<defs>
<clipPath id="clip0_7175_80">
<rect width="24" height="24" fill="white"/>
</clipPath>
</defs>
</svg>
